<svg width="200" height="400" xmlns="http://www.w3.org/2000/svg">
 <!-- Created with Method Draw - http://github.com/duopixel/Method-Draw/ -->
 <!-- <g>
  <title>background</title>
  <rect fill="#fff" id="canvas_background" height="402" width="202" y="-1" x="-1"/>
  <g display="none" overflow="visible" y="0" x="0" height="100%" width="100%" id="canvasGrid">
   <rect fill="url(#gridpattern)" stroke-width="0" y="0" x="0" height="100%" width="100%"/>
  </g>
</g> -->
 <g>
  <title>Layer 1</title>
  <rect id="svg_1" height="193" width="63" y="114.833592" x="69.333285" stroke-width="0" stroke="#000" fill="#ffffff"/>
  <path stroke="#000" id="svg_6" d="m69.513687,114.330314l31.374845,-54.249724l31.374845,54.249724l-62.74969,0z" stroke-opacity="null" stroke-width="0" fill="#f24646"/>
  <path id="svg_8" d="m69.910545,317.469891l13.062485,-17.749957l13.062485,17.749957l-26.12497,0z" stroke-opacity="null" stroke-width="0" stroke="#000" fill="#f24646"/>
  <path id="svg_9" d="m106.0355,317.71989l13.062485,-17.749956l13.062485,17.749956l-26.12497,0z" stroke-opacity="null" stroke-width="0" stroke="#000" fill="#f24646"/>
  <path stroke="#000" id="svg_10" d="m83.541898,188.137489c-0.624252,4.036977 -2.21881,7.895157 -2.326183,12.058058c0.142866,2.410313 -1.272958,3.705005 -3.211182,3.659422c-2.084621,2.467941 0.257305,6.368255 2.616001,7.364489c2.407184,1.845423 5.393464,-0.216642 7.777997,1.438776c3.166264,2.826846 4.488107,7.838904 3.395749,12.232895c-1.086097,3.627251 4.473568,2.308052 2.38239,-0.59149c-1.615097,-2.834078 3.044575,-1.897077 1.85167,0.793619c-0.225412,2.159881 1.394948,2.85898 0.673835,4.951511c1.878622,1.23029 -0.157479,1.919148 -1.301736,2.151444c-2.679587,1.525592 0.484685,-2.732856 -1.638082,-3.992423c-1.943921,0.482514 -0.626715,4.200356 -1.293958,3.770949c-1.373631,-1.228479 -1.372618,-5.821413 -3.678037,-2.824578c-0.765146,-3.69263 0.630928,-7.538355 -0.444525,-11.209548c0.440549,-2.741695 -3.34961,-3.687381 -2.870223,-0.507474c0.191107,4.85321 -1.099251,9.696754 -0.358678,14.526051c1.019979,2.978671 3.872697,4.320525 5.663143,6.619081c1.470444,1.772317 3.376746,3.667212 5.665409,3.109224c2.595823,-0.128513 5.196432,-0.402319 7.780543,0.06838c3.250285,0.117082 5.731475,-2.81718 8.505265,-4.324442c3.260806,-2.957177 2.747401,-8.239312 2.422341,-12.44679c-0.398588,-2.597656 0.476064,-5.196494 0.313065,-7.769835c-2.350864,-3.285186 -4.279642,2.489186 -3.609964,4.970048c-0.000164,3.120736 0.524568,7.140777 -2.08195,9.173654c-2.15108,-0.061949 -4.198287,0.830422 -6.365958,0.363837c-1.758942,1.192971 -4.607995,1.162337 -5.188587,-1.677568c-0.231796,-2.522023 0.768773,-5.166109 -0.590723,-7.519857c1.194481,1.174969 3.278482,-1.014781 2.11705,1.619421c-1.416613,2.144236 1.199533,5.448364 2.184391,2.283437c0.326748,-2.123483 -1.413368,-4.9418 1.447016,-4.486858c0.583332,0.749015 -1.992028,5.988363 1.528325,4.664322c2.509821,-0.627893 -0.446517,-5.124437 2.95227,-5.140062c1.64489,-2.211698 1.202005,-6.357241 3.718096,-8.035103c2.805425,-2.16838 7.185643,-0.602895 9.187986,-4.275036c1.706719,-1.879169 0.903544,-7.087606 -2.039928,-5.361797c-3.67839,0.409544 -0.759074,-5.690065 -0.861707,-7.975656c0.866692,-1.990669 -1.052531,-6.181023 -0.391656,-6.625601c1.248742,2.182068 1.695991,4.734237 1.427434,7.28434c-0.023078,2.162571 -0.82608,8.023433 1.806331,4.410485c0.891142,-2.517907 0.631961,-5.369889 1.266854,-7.98948c1.224543,-5.655628 -0.968026,-11.314401 -3.41233,-16.104684c-2.081773,-2.578837 -4.724642,-4.634592 -7.206498,-6.658653c-4.174569,-1.793172 -8.783941,-2.114412 -13.192925,-1.665c-3.899923,0.772051 -8.024078,1.586011 -11.130862,4.622919c-3.027827,2.037595 -5.927608,4.743834 -7.124633,8.659052c-1.043156,3.154102 -2.869856,6.366165 -2.039638,9.869917c0.793992,2.920769 0.372876,5.954091 0.501432,8.939415c1.35352,3.411929 2.631409,-1.745905 2.504741,-3.451945c0.074931,-3.235203 1.569412,-6.098827 2.670631,-8.970863l-0.000002,-0.000005zm24.860498,6.940699c2.783421,0.227796 6.307655,1.998067 6.383615,5.688733c0.423234,3.70368 -2.197046,7.293732 -5.555002,6.930529c-3.050101,-0.286142 -5.000816,-3.295195 -4.798281,-6.678225c-1.021165,-2.42567 0.567948,-5.023592 2.700684,-5.581212c0.41358,-0.158833 0.838694,-0.277722 1.268985,-0.359827l0,0.000002zm-18.783412,0.315458c3.228975,-0.65586 6.902726,1.631903 6.913507,5.714019c0.303266,3.946326 -3.365195,4.71949 -5.867659,5.708104c-1.73159,1.276952 -3.530303,0.088015 -4.969119,-1.198555c-1.866793,-2.231637 -1.318099,-6.728721 0.653045,-8.765825c0.955844,-0.807934 2.139101,-1.125536 3.270226,-1.457743zm11.049075,10.41075c1.563185,2.453836 3.4398,6.195773 1.418264,8.980786c-1.794571,1.64375 -2.020819,-2.338059 -3.904393,-0.462792c-1.767012,-1.767463 -0.137279,-5.364075 1.102559,-7.159601c0.408643,-0.517044 0.87627,-0.972241 1.38357,-1.358393z" stroke-opacity="null" stroke-width="0" fill="#000000"/>
 </g>
</svg>
