<?xml version="1.0" encoding="iso-8859-1"?>
<!-- Generator: Adobe Illustrator 19.0.0, SVG Export Plug-In . SVG Version: 6.00 Build 0)  -->
<!DOCTYPE svg PUBLIC "-//W3C//DTD SVG 1.1//EN" "http://www.w3.org/Graphics/SVG/1.1/DTD/svg11.dtd">
<svg version="1.1" id="Layer_1" xmlns="http://www.w3.org/2000/svg" xmlns:xlink="http://www.w3.org/1999/xlink" x="0px" y="0px" width="340px" height="340px"
	 viewBox="0 0 338.324 338.324" style="enable-background:new 0 0 338.324 338.324;" xml:space="preserve">
<g>
	<g>
		<path style="fill:#D9A460;" d="M71.833,75.365c0-26.877,21.788-48.664,48.665-48.664s48.665,21.787,48.665,48.664v187.594
			c0,26.877-21.788,48.664-48.665,48.664s-48.665-21.787-48.665-48.664C71.833,262.959,71.833,75.365,71.833,75.365z"/>
		<path style="fill:#B3874F;" d="M120.498,26.701c-2.757,0-5.457,0.241-8.089,0.682v283.559c2.632,0.44,5.332,0.682,8.089,0.682
			c26.864,0,48.644-21.767,48.664-48.625V75.327C169.142,48.468,147.362,26.701,120.498,26.701z"/>
	</g>
	<g>
		<path style="fill:#D9A460;" d="M266.491,75.365c0-26.877-21.788-48.664-48.665-48.664c-26.877,0-48.665,21.787-48.665,48.664
			v187.594c0,26.877,21.788,48.664,48.665,48.664s48.665-21.787,48.665-48.664V75.365z"/>
		<path style="fill:#B3874F;" d="M217.826,26.701c2.757,0,5.457,0.241,8.089,0.682v283.559c-2.632,0.44-5.332,0.682-8.089,0.682
			c-26.864,0-48.644-21.767-48.664-48.625V75.327C169.183,48.468,190.962,26.701,217.826,26.701z"/>
	</g>
	<path style="fill:#E94F3D;" d="M132.248,36.914C132.248,16.526,148.775,0,169.162,0c20.389,0,36.916,16.526,36.916,36.914V301.41
		c0,20.388-16.527,36.914-36.916,36.914c-20.387,0-36.914-16.526-36.914-36.914V36.914z"/>
	<path style="fill:#FEDD3D;" d="M171.909,316.013c-1.357,0-2.732-0.346-3.992-1.073c-9.547-5.512-15.023-13.661-15.023-22.356
		c0-8.695,5.476-16.844,15.023-22.356c4.397-2.539,7.022-5.716,7.022-8.5c0-2.783-2.625-5.96-7.022-8.499
		c-9.547-5.512-15.023-13.661-15.023-22.356s5.476-16.844,15.023-22.356c4.397-2.539,7.022-5.716,7.022-8.5
		c0-2.783-2.625-5.96-7.022-8.499c-9.547-5.512-15.023-13.661-15.023-22.356c0-8.695,5.476-16.844,15.023-22.356
		c4.397-2.539,7.022-5.716,7.022-8.5c0-2.783-2.625-5.96-7.022-8.499c-9.547-5.512-15.023-13.661-15.023-22.356
		s5.476-16.844,15.023-22.356c4.397-2.539,7.022-5.716,7.022-8.499c0.001-2.783-2.625-5.961-7.022-8.499
		c-9.547-5.512-15.023-13.661-15.023-22.356c0-8.696,5.476-16.844,15.023-22.356c3.828-2.209,8.72-0.898,10.928,2.928
		c2.21,3.826,0.898,8.719-2.928,10.928c-4.398,2.539-7.023,5.716-7.023,8.5c0,2.783,2.625,5.961,7.023,8.5
		c9.548,5.512,15.023,13.661,15.022,22.356c0,8.696-5.476,16.844-15.022,22.355c-4.398,2.538-7.023,5.716-7.023,8.5
		c0,2.783,2.625,5.961,7.023,8.499c9.547,5.512,15.022,13.661,15.022,22.356s-5.476,16.844-15.022,22.356
		c-4.398,2.539-7.023,5.716-7.023,8.499c0,2.783,2.625,5.961,7.023,8.5c9.547,5.512,15.022,13.661,15.022,22.356
		c0,8.695-5.476,16.844-15.022,22.356c-4.398,2.539-7.023,5.716-7.023,8.499s2.625,5.961,7.023,8.499
		c9.547,5.512,15.022,13.661,15.022,22.356c0,8.695-5.476,16.844-15.022,22.356c-4.398,2.538-7.023,5.716-7.023,8.5
		c0,2.783,2.625,5.961,7.023,8.499c3.826,2.21,5.138,7.102,2.928,10.928C177.363,314.578,174.674,316.013,171.909,316.013z"/>
</g>
<g>
</g>
<g>
</g>
<g>
</g>
<g>
</g>
<g>
</g>
<g>
</g>
<g>
</g>
<g>
</g>
<g>
</g>
<g>
</g>
<g>
</g>
<g>
</g>
<g>
</g>
<g>
</g>
<g>
</g>
</svg>
