<?xml version="1.0" encoding="utf-8"?>
<!-- Generator: Adobe Illustrator 17.0.0, SVG Export Plug-In . SVG Version: 6.00 Build 0)  -->
<!DOCTYPE svg PUBLIC "-//W3C//DTD SVG 1.1//EN" "http://www.w3.org/Graphics/SVG/1.1/DTD/svg11.dtd">
<svg version="1.1" id="Layer_1" xmlns="http://www.w3.org/2000/svg" xmlns:xlink="http://www.w3.org/1999/xlink" x="0px" y="0px"
	 width="612px" height="612px" viewBox="0 0 612 612" enable-background="new 0 0 612 612" xml:space="preserve" fill="#FFFFFF">
<g transform="matrix(15 0 0 15 -1064.0001 -4364.0003)">
	<g>
		<path d="M100.167,316.911c-0.003,4.929-3.96,8.922-8.839,8.919c-4.874-0.003-8.825-3.995-8.828-8.919
			c-0.003-4.929,3.949-8.928,8.828-8.931c4.879-0.003,8.836,3.99,8.839,8.919C100.167,316.904,100.167,316.908,100.167,316.911z"/>
		<path d="M91.333,294.599c2.208,6.694,4.417,6.694,4.417,11.156c0,0-2.208,2.231-4.417,2.231c-2.208,0-4.417-2.231-4.417-2.231
			C86.917,301.293,89.125,301.293,91.333,294.599z"/>
	</g>
</g>
</svg>
